<svg width="137" height="47" viewBox="0 0 137 47" fill="none" xmlns="http://www.w3.org/2000/svg">
<path d="M65.5 33H62.502L57.1016 23.7812V33H54.2988V18.9961H57.2969L62.6973 28.2246V18.9961H65.5V33ZM77.7754 27.6777C77.7754 28.459 77.6354 29.1882 77.3555 29.8652C77.0755 30.5358 76.6947 31.1185 76.2129 31.6133C75.7311 32.1016 75.1647 32.4889 74.5137 32.7754C73.8691 33.0553 73.1758 33.1953 72.4336 33.1953C71.6979 33.1953 71.0046 33.0553 70.3535 32.7754C69.709 32.4889 69.1426 32.1016 68.6543 31.6133C68.1725 31.1185 67.7917 30.5358 67.5117 29.8652C67.2318 29.1882 67.0918 28.459 67.0918 27.6777C67.0918 26.8835 67.2318 26.1478 67.5117 25.4707C67.7917 24.7936 68.1725 24.2109 68.6543 23.7227C69.1426 23.2279 69.709 22.8405 70.3535 22.5605C71.0046 22.2806 71.6979 22.1406 72.4336 22.1406C73.1758 22.1406 73.8691 22.2741 74.5137 22.541C75.1647 22.8014 75.7311 23.1758 76.2129 23.6641C76.6947 24.1458 77.0755 24.7285 77.3555 25.4121C77.6354 26.0892 77.7754 26.8444 77.7754 27.6777ZM75.0898 27.6777C75.0898 27.248 75.0182 26.8607 74.875 26.5156C74.7383 26.1641 74.5495 25.8646 74.3086 25.6172C74.0677 25.3633 73.7845 25.1712 73.459 25.041C73.14 24.9043 72.7982 24.8359 72.4336 24.8359C72.069 24.8359 71.724 24.9043 71.3984 25.041C71.0794 25.1712 70.7995 25.3633 70.5586 25.6172C70.3242 25.8646 70.1387 26.1641 70.002 26.5156C69.8652 26.8607 69.7969 27.248 69.7969 27.6777C69.7969 28.0814 69.8652 28.4557 70.002 28.8008C70.1387 29.1458 70.3242 29.4453 70.5586 29.6992C70.7995 29.9531 71.0794 30.1549 71.3984 30.3047C71.724 30.4479 72.069 30.5195 72.4336 30.5195C72.7982 30.5195 73.14 30.4512 73.459 30.3145C73.7845 30.1777 74.0677 29.9857 74.3086 29.7383C74.5495 29.4909 74.7383 29.1914 74.875 28.8398C75.0182 28.4883 75.0898 28.1009 75.0898 27.6777ZM89.3574 33H88.7129L87.6777 31.5645C87.4238 31.7923 87.1536 32.0072 86.8672 32.209C86.5872 32.4043 86.291 32.5768 85.9785 32.7266C85.666 32.8698 85.3438 32.9837 85.0117 33.0684C84.6862 33.153 84.3542 33.1953 84.0156 33.1953C83.2799 33.1953 82.5866 33.0586 81.9355 32.7852C81.291 32.5052 80.7246 32.1211 80.2363 31.6328C79.7546 31.138 79.3737 30.5553 79.0938 29.8848C78.8138 29.2077 78.6738 28.472 78.6738 27.6777C78.6738 26.89 78.8138 26.1576 79.0938 25.4805C79.3737 24.8034 79.7546 24.2174 80.2363 23.7227C80.7246 23.2279 81.291 22.8405 81.9355 22.5605C82.5866 22.2806 83.2799 22.1406 84.0156 22.1406C84.25 22.1406 84.4909 22.1602 84.7383 22.1992C84.9922 22.2383 85.2363 22.3034 85.4707 22.3945C85.7116 22.4792 85.9362 22.5931 86.1445 22.7363C86.3529 22.8796 86.5286 23.0553 86.6719 23.2637V18.3809H89.3574V33ZM86.6719 27.6777C86.6719 27.3132 86.6003 26.9616 86.457 26.623C86.3203 26.278 86.1315 25.9753 85.8906 25.7148C85.6497 25.4479 85.3665 25.2363 85.041 25.0801C84.722 24.9173 84.3802 24.8359 84.0156 24.8359C83.651 24.8359 83.306 24.901 82.9805 25.0312C82.6615 25.1615 82.3815 25.3503 82.1406 25.5977C81.9062 25.8385 81.7207 26.1348 81.584 26.4863C81.4473 26.8379 81.3789 27.235 81.3789 27.6777C81.3789 28.0618 81.4473 28.4264 81.584 28.7715C81.7207 29.1165 81.9062 29.4193 82.1406 29.6797C82.3815 29.9401 82.6615 30.1452 82.9805 30.2949C83.306 30.4447 83.651 30.5195 84.0156 30.5195C84.3802 30.5195 84.722 30.4414 85.041 30.2852C85.3665 30.1224 85.6497 29.9108 85.8906 29.6504C86.1315 29.3835 86.3203 29.0807 86.457 28.7422C86.6003 28.3971 86.6719 28.0423 86.6719 27.6777ZM95.5586 30.4414C95.6628 30.474 95.7669 30.4967 95.8711 30.5098C95.9753 30.5163 96.0794 30.5195 96.1836 30.5195C96.444 30.5195 96.6947 30.4837 96.9355 30.4121C97.1764 30.3405 97.401 30.2396 97.6094 30.1094C97.8242 29.9727 98.013 29.8099 98.1758 29.6211C98.3451 29.4258 98.4818 29.2109 98.5859 28.9766L100.539 30.9395C100.292 31.291 100.005 31.6068 99.6797 31.8867C99.3607 32.1667 99.0124 32.4043 98.6348 32.5996C98.2637 32.7949 97.8698 32.9414 97.4531 33.0391C97.043 33.1432 96.6198 33.1953 96.1836 33.1953C95.4479 33.1953 94.7546 33.0586 94.1035 32.7852C93.459 32.5117 92.8926 32.1309 92.4043 31.6426C91.9225 31.1543 91.5417 30.5749 91.2617 29.9043C90.9818 29.2272 90.8418 28.485 90.8418 27.6777C90.8418 26.8509 90.9818 26.0957 91.2617 25.4121C91.5417 24.7285 91.9225 24.1458 92.4043 23.6641C92.8926 23.1823 93.459 22.8079 94.1035 22.541C94.7546 22.2741 95.4479 22.1406 96.1836 22.1406C96.6198 22.1406 97.0462 22.1927 97.4629 22.2969C97.8796 22.401 98.2734 22.5508 98.6445 22.7461C99.0221 22.9414 99.3737 23.1823 99.6992 23.4688C100.025 23.7487 100.311 24.0645 100.559 24.416L95.5586 30.4414ZM96.9258 24.9434C96.8021 24.8978 96.6784 24.8685 96.5547 24.8555C96.4375 24.8424 96.3138 24.8359 96.1836 24.8359C95.819 24.8359 95.474 24.9043 95.1484 25.041C94.8294 25.1712 94.5495 25.36 94.3086 25.6074C94.0742 25.8548 93.8887 26.1543 93.752 26.5059C93.6152 26.8509 93.5469 27.2415 93.5469 27.6777C93.5469 27.7754 93.5501 27.8861 93.5566 28.0098C93.5697 28.1335 93.5859 28.2604 93.6055 28.3906C93.6315 28.5143 93.6608 28.6348 93.6934 28.752C93.7259 28.8691 93.7682 28.9733 93.8203 29.0645L96.9258 24.9434ZM104.592 36.9844H101.906V22.541H102.551L103.615 23.8008C103.856 23.5729 104.12 23.3581 104.406 23.1562C104.693 22.9544 104.989 22.7819 105.295 22.6387C105.607 22.4889 105.93 22.3717 106.262 22.2871C106.594 22.2025 106.929 22.1602 107.268 22.1602C108.003 22.1602 108.693 22.2936 109.338 22.5605C109.989 22.821 110.555 23.1921 111.037 23.6738C111.525 24.1556 111.91 24.7383 112.189 25.4219C112.469 26.099 112.609 26.8509 112.609 27.6777C112.609 28.5371 112.469 29.3118 112.189 30.002C111.91 30.6855 111.525 31.2682 111.037 31.75C110.555 32.2253 109.989 32.5898 109.338 32.8438C108.693 33.0977 108.003 33.2246 107.268 33.2246C107.033 33.2246 106.799 33.1986 106.564 33.1465C106.337 33.0944 106.109 33.026 105.881 32.9414C105.66 32.8503 105.438 32.7493 105.217 32.6387C105.002 32.528 104.794 32.4141 104.592 32.2969V36.9844ZM109.934 27.6777C109.934 27.235 109.862 26.8379 109.719 26.4863C109.582 26.1348 109.393 25.8385 109.152 25.5977C108.911 25.3503 108.628 25.1615 108.303 25.0312C107.977 24.901 107.632 24.8359 107.268 24.8359C106.903 24.8359 106.558 24.901 106.232 25.0312C105.913 25.1615 105.633 25.3503 105.393 25.5977C105.152 25.8385 104.96 26.1348 104.816 26.4863C104.68 26.8379 104.611 27.235 104.611 27.6777C104.611 28.1009 104.68 28.4883 104.816 28.8398C104.96 29.1914 105.152 29.4909 105.393 29.7383C105.633 29.9857 105.913 30.1777 106.232 30.3145C106.558 30.4512 106.903 30.5195 107.268 30.5195C107.632 30.5195 107.977 30.4512 108.303 30.3145C108.628 30.1777 108.911 29.9857 109.152 29.7383C109.393 29.4909 109.582 29.1914 109.719 28.8398C109.862 28.4883 109.934 28.1009 109.934 27.6777ZM124.201 27.6777C124.201 28.459 124.061 29.1882 123.781 29.8652C123.501 30.5358 123.12 31.1185 122.639 31.6133C122.157 32.1016 121.59 32.4889 120.939 32.7754C120.295 33.0553 119.602 33.1953 118.859 33.1953C118.124 33.1953 117.43 33.0553 116.779 32.7754C116.135 32.4889 115.568 32.1016 115.08 31.6133C114.598 31.1185 114.217 30.5358 113.938 29.8652C113.658 29.1882 113.518 28.459 113.518 27.6777C113.518 26.8835 113.658 26.1478 113.938 25.4707C114.217 24.7936 114.598 24.2109 115.08 23.7227C115.568 23.2279 116.135 22.8405 116.779 22.5605C117.43 22.2806 118.124 22.1406 118.859 22.1406C119.602 22.1406 120.295 22.2741 120.939 22.541C121.59 22.8014 122.157 23.1758 122.639 23.6641C123.12 24.1458 123.501 24.7285 123.781 25.4121C124.061 26.0892 124.201 26.8444 124.201 27.6777ZM121.516 27.6777C121.516 27.248 121.444 26.8607 121.301 26.5156C121.164 26.1641 120.975 25.8646 120.734 25.6172C120.493 25.3633 120.21 25.1712 119.885 25.041C119.566 24.9043 119.224 24.8359 118.859 24.8359C118.495 24.8359 118.15 24.9043 117.824 25.041C117.505 25.1712 117.225 25.3633 116.984 25.6172C116.75 25.8646 116.564 26.1641 116.428 26.5156C116.291 26.8607 116.223 27.248 116.223 27.6777C116.223 28.0814 116.291 28.4557 116.428 28.8008C116.564 29.1458 116.75 29.4453 116.984 29.6992C117.225 29.9531 117.505 30.1549 117.824 30.3047C118.15 30.4479 118.495 30.5195 118.859 30.5195C119.224 30.5195 119.566 30.4512 119.885 30.3145C120.21 30.1777 120.493 29.9857 120.734 29.7383C120.975 29.4909 121.164 29.1914 121.301 28.8398C121.444 28.4883 121.516 28.1009 121.516 27.6777ZM128.361 36.9844H125.676V22.541H126.32L127.385 23.8008C127.626 23.5729 127.889 23.3581 128.176 23.1562C128.462 22.9544 128.758 22.7819 129.064 22.6387C129.377 22.4889 129.699 22.3717 130.031 22.2871C130.363 22.2025 130.699 22.1602 131.037 22.1602C131.773 22.1602 132.463 22.2936 133.107 22.5605C133.758 22.821 134.325 23.1921 134.807 23.6738C135.295 24.1556 135.679 24.7383 135.959 25.4219C136.239 26.099 136.379 26.8509 136.379 27.6777C136.379 28.5371 136.239 29.3118 135.959 30.002C135.679 30.6855 135.295 31.2682 134.807 31.75C134.325 32.2253 133.758 32.5898 133.107 32.8438C132.463 33.0977 131.773 33.2246 131.037 33.2246C130.803 33.2246 130.568 33.1986 130.334 33.1465C130.106 33.0944 129.878 33.026 129.65 32.9414C129.429 32.8503 129.208 32.7493 128.986 32.6387C128.771 32.528 128.563 32.4141 128.361 32.2969V36.9844ZM133.703 27.6777C133.703 27.235 133.632 26.8379 133.488 26.4863C133.352 26.1348 133.163 25.8385 132.922 25.5977C132.681 25.3503 132.398 25.1615 132.072 25.0312C131.747 24.901 131.402 24.8359 131.037 24.8359C130.673 24.8359 130.327 24.901 130.002 25.0312C129.683 25.1615 129.403 25.3503 129.162 25.5977C128.921 25.8385 128.729 26.1348 128.586 26.4863C128.449 26.8379 128.381 27.235 128.381 27.6777C128.381 28.1009 128.449 28.4883 128.586 28.8398C128.729 29.1914 128.921 29.4909 129.162 29.7383C129.403 29.9857 129.683 30.1777 130.002 30.3145C130.327 30.4512 130.673 30.5195 131.037 30.5195C131.402 30.5195 131.747 30.4512 132.072 30.3145C132.398 30.1777 132.681 29.9857 132.922 29.7383C133.163 29.4909 133.352 29.1914 133.488 28.8398C133.632 28.4883 133.703 28.1009 133.703 27.6777Z" fill="#14B8A6"/>
<rect width="48.0444" height="47" fill="#14B8A6"/>
<path d="M30.5703 30.3047V8.54688C31.6901 8.58594 32.7383 8.65755 33.7148 8.76172C34.7044 8.85286 35.5768 8.95052 36.332 9.05469C37.2044 9.1849 38.0182 9.3151 38.7734 9.44531V14.4062C37.7318 14.0938 36.5339 13.8203 35.1797 13.5859V33.2734C35.8828 33.1693 36.5273 33.0456 37.1133 32.9023C37.7122 32.7591 38.2656 32.6094 38.7734 32.4531V37.0625C37.8359 37.2188 36.9831 37.349 36.2148 37.4531C35.4466 37.5573 34.7305 37.6419 34.0664 37.707C33.4154 37.7721 32.8034 37.8242 32.2305 37.8633C31.6576 37.9023 31.1042 37.9349 30.5703 37.9609L17.4844 16.2422V37.9609C16.9505 37.9349 16.3971 37.9023 15.8242 37.8633C15.2513 37.8242 14.6393 37.7721 13.9883 37.707C13.3372 37.6419 12.6276 37.5573 11.8594 37.4531C11.0911 37.349 10.2448 37.2188 9.32031 37.0625V32.1016C10.2839 32.4141 11.4818 32.6875 12.9141 32.9219V13.1953C12.224 13.3125 11.5794 13.4427 10.9805 13.5859C10.3815 13.7292 9.82812 13.8724 9.32031 14.0156V9.44531C10.0495 9.3151 10.8503 9.1849 11.7227 9.05469C12.4648 8.95052 13.3307 8.85286 14.3203 8.76172C15.3099 8.65755 16.3646 8.58594 17.4844 8.54688L30.5703 30.3047Z" fill="white"/>
</svg>
